# xmcd
#
# Track frame offsets:
#	150
#	18161
#	35549
#	51328
#	70139
#	89178
#	105782
#	129348
#	146467
#	169419
#
# Disc length: 2532 seconds
#
# Revision: 1
# Processed by: cddbd v1.5.2PL0 Copyright (c) Steve Scherf et al.
# Submitted via: audiograbber 1.83.01
#
DISCID=8409e20a
DTITLE=The Handsome Family - Unseen
DYEAR=2016
DGENRE=Americana
TTITLE0=Gold
TTITLE1=The Silver Light
TTITLE2=Back in my Day
TTITLE3=Tiny Tina
TTITLE4=Underneath the Falls
TTITLE5=The Sea Rose
TTITLE6=The Red Door
TTITLE7=Gentlemen
TTITLE8=King of Dust
TTITLE9=Green Willow Valley
EXTD=
EXTT0=
EXTT1=
EXTT2=
EXTT3=
EXTT4=
EXTT5=
EXTT6=
EXTT7=
EXTT8=
EXTT9=
PLAYORDER=
